<svg id="Layer_21" data-name="Layer 21" xmlns="http://www.w3.org/2000/svg" viewBox="0 0 183.5 750.3"><title>bambooright2</title><path d="M106.18,669.17c4.89-15.69,32.87-15.43,30.82-7.58s6.7,81.48,6.7,81.48-46.06,16.49-38-.35S101.29,684.86,106.18,669.17Z" fill="#919075"/><path d="M31.16,520c-3.37,1.79.4,0-10,1.87S6.6,515.59,0,517.25c0,0,19.35-10.88,34.77.57,0,0,18.69-2.4,23.46-5-.67-.9-1.35-1.77-2-2.61a47.27,47.27,0,0,0-9.37-8.87A26.68,26.68,0,0,0,37.46,497a21,21,0,0,0-3.9-.5c-.42,1.26-5.46,2-5.46,2s-7.64,8.34-15.82,5.81c0,0,9-12.39,17.83-9.92a7.78,7.78,0,0,1,3.25,1.42,21.5,21.5,0,0,1,4.23.26,27,27,0,0,1,9.83,3.83,47.41,47.41,0,0,1,10.05,8.56,93.34,93.34,0,0,1,9.27,12.3c1.16,1.82,2.29,3.7,3.39,5.63-1.82-16.15-6.42-16-6.42-16C49.84,497.9,41.27,475.81,39.86,472c1.9,4.93,5.24,4.55,12.8,12.2,7.84,7.94,7.61,14.33,9.77,20S66,510.11,66,510.11c-2.91-14.9-8.85-23.19-8.85-23.19C50.77,466.46,61,445.86,61,445.86c7.49,17.11-3.1,39.22-3.1,39.22C68.55,504,71.36,523.32,72,529.91q1.49,2.77,2.92,5.64c2.59,5.2,5,10.62,7.27,16.15,4.52,11,8.45,22.43,11.8,33.25,2.47,8,4.63,15.64,6.49,22.66-.17-37.36.54-83.52-1.75-99.28,0,0,11.69-17.1,30.4-4.15,0,0-1.89,113.56,6.28,149.53,0,0-22.23-3.7-30.32,6.11-1.82,2.21-2.93-2.79-3.61-12.19a5.82,5.82,0,0,1-.21-.88v-.07l-.32-2.1c-.22-1.39-.55-3.43-1-6-.89-5.19-2.24-12.6-4.08-21.44s-4.17-19.09-7-29.94-6.26-22.27-10.25-33.38c-2-5.55-4.15-11-6.48-16.25a161.09,161.09,0,0,0-7.46-14.89,101.91,101.91,0,0,0-5.95-9.19l-23.18,5.58S19,549.38,9.38,551.75c0,0,8.25-22.24,19-27.85C28.34,523.9,38.67,516,31.16,520Z" fill="#919075"/><path d="M39.86,472l-.15-.4Z" fill="#919075"/><path d="M39.71,471.57l-.06-.17Z" fill="#919075"/><path d="M138.69,253.42c-1.54,3.51-2.93,7.28-4.19,11.17s-2.4,7.94-3.41,12c-2,8.17-3.62,16.51-4.87,24.38s-2.17,15.28-2.85,21.64S122.25,334.32,122,338c-.13,1.86-.22,3.32-.28,4.31l-.08,1.5v0a4.21,4.21,0,0,1-.08.64c.17,6.64-.26,10.24-1.68,8.89-6.33-6-21.6-1.12-21.6-1.12,3.24-26-5.87-105.09-5.87-105.09,12.18-11,21.52-.26,21.52-.26-.52,11.25,3.14,43.42,5.59,69.53.82-5.1,1.8-10.68,3-16.5,1.59-7.9,3.56-16.26,6-24.45,1.2-4.09,2.52-8.13,4-12,.53-1.43,1.09-2.83,1.65-4.22a88.52,88.52,0,0,1,6.77-32.8s-8.91-14.34-4.86-27.07c0,0,8.6,13.32,5.55,28.27,0,0-3.58,6.41-4.59,17.12,0,0,1-.33,2.08-4.51s.52-8.63,5.45-15c4.75-6.13,7.11-6.21,8.1-9.85-.72,2.82-5.19,19.14-14,29.35,0,0-3.23.35-3.39,11.84.64-1.47,1.3-2.91,2-4.3a70.38,70.38,0,0,1,5.63-9.56,35.94,35.94,0,0,1,6.43-7,20.07,20.07,0,0,1,6.6-3.69,15.43,15.43,0,0,1,2.94-.62,5.79,5.79,0,0,1,2.17-1.33c6-2.65,13.13,5.07,13.13,5.07-5.54,2.62-11.45-2.41-11.45-2.41s-3.58,0-4-.85a15.22,15.22,0,0,0-2.69.76,20,20,0,0,0-6.24,4,35.83,35.83,0,0,0-5.93,7.17c-.42.66-.84,1.34-1.25,2,3.51,1.35,16.73,1.09,16.73,1.09,10-9.6,24.24-4,24.24-4-4.73-.47-7.06,5.65-14.46,5.42s-4.64.63-7.12-.27c-5.52-2,2.24,2.44,2.24,2.44C172,253.32,179.31,268,179.31,268c-6.87-.66-20.53-20.12-20.53-20.12l-16.57-1.49A76.5,76.5,0,0,0,138.69,253.42Z" fill="#919075"/><path d="M152.55,215.44l.08-.33Z" fill="#919075"/><path d="M152.64,215.11l0-.09Z" fill="#919075"/><path d="M120.87,358.08c4.34,9.87,8.36,136.95,8.36,136.95s-25.12-9.87-32.4,4.13c0,0,6-125,.86-141.29C97.69,357.86,116.53,348.2,120.87,358.08Z" fill="#919075"/><path d="M109.4,207c-2.59-6.75-15-5.5-13.86-2.11s-.78,36.38-.78,36.38,6.08-7.37,16.82-1.7C107.53,232.41,112,213.72,109.4,207Z" fill="#919075"/><path d="M138.65,137.82c1.54.66-.18,0,4.48.42s6.28-3.37,9.25-2.91c0,0-8.87-4-15.39,1.66,0,0-8.35-.3-10.53-1.28.27-.43.55-.84.83-1.24a22,22,0,0,1,3.91-4.31,12.3,12.3,0,0,1,4-2.28,9.48,9.48,0,0,1,1.72-.38c.22.54,2.48.67,2.48.67s3.61,3.39,7.17,1.93c0,0-4.3-5.13-8.17-3.67a3.59,3.59,0,0,0-1.4.76,9.66,9.66,0,0,0-1.87.29,12.39,12.39,0,0,0-4.25,2.09,22.05,22.05,0,0,0-4.22,4.2,43.33,43.33,0,0,0-3.78,5.83c-.46.85-.92,1.73-1.35,2.63.37-7.23,2.42-7.34,2.42-7.34,5.8-6.13,9-16.26,9.53-18-.71,2.26-2.2,2.23-5.35,5.93s-3,6.66-3.79,9.26-1.42,2.77-1.42,2.77a29.16,29.16,0,0,1,3.3-10.64c2.27-9.33-2.84-18-2.84-18-2.86,7.89,2.43,17.26,2.43,17.26a55.28,55.28,0,0,0-5,20.44q-.59,1.29-1.14,2.62c-1,2.41-1.94,4.91-2.79,7.45-1.71,5.08-3.14,10.28-4.34,15.21-.88,3.64-1.63,7.12-2.27,10.31-.93-16.56-2.48-37-1.89-44.07,0,0-5.64-7.1-13.58-.6,0,0,3.88,50.25,1.22,66.52,0,0,9.75-2.54,13.6,1.48.87.91,1.23-1.36,1.27-5.55a2.63,2.63,0,0,0,.07-.4v0l.09-.95c.06-.62.15-1.54.28-2.71.26-2.34.65-5.68,1.23-9.67s1.34-8.63,2.31-13.55,2.18-10.12,3.65-15.21c.74-2.54,1.55-5,2.43-7.46a74.14,74.14,0,0,1,2.91-6.9,47.16,47.16,0,0,1,2.39-4.31l10.42,1.53s8.16,12.77,12.48,13.43c0,0-4.25-9.52-9.15-11.57C140,139.43,135.21,136.36,138.65,137.82Z" fill="#919075"/><path d="M133.51,116.89l.05-.19Z" fill="#919075"/><path d="M133.56,116.71l0-.08Z" fill="#919075"/><path d="M83.85,24A51.51,51.51,0,0,1,86,28.83c.66,1.68,1.27,3.42,1.83,5.19,1.12,3.54,2,7.17,2.81,10.6S92,51.31,92.5,54.1s.81,5.13,1,6.77c.11.82.19,1.46.24,1.9l.08.66v0a1.85,1.85,0,0,0,.05.28c.1,2.95.39,4.53,1,3.87,2.64-2.92,9.54-1.37,9.54-1.37-2.13-11.38-.22-46.81-.22-46.81-5.69-4.38-9.54.76-9.54.76.53,5-.23,19.37-.61,31C93.55,49,93,46.55,92.29,44c-.92-3.44-2-7.06-3.3-10.59-.64-1.76-1.34-3.5-2.08-5.17-.27-.61-.56-1.21-.85-1.8a38.57,38.57,0,0,0-3.88-14.26S85.75,5.48,83.61,0c0,0-3.45,6.25-1.7,12.75a20.29,20.29,0,0,1,2.49,7.4s-.43-.11-1-1.92-.46-3.8-2.82-6.42-3.32-2.46-3.86-4c.4,1.22,2.81,8.27,7,12.44,0,0,1.44,0,1.82,5.11-.32-.62-.65-1.24-1-1.83a30,30,0,0,0-2.75-4,15.24,15.24,0,0,0-3-2.85,8.6,8.6,0,0,0-3-1.37,6.75,6.75,0,0,0-1.32-.16,2.47,2.47,0,0,0-1-.5c-2.74-.93-5.68,2.78-5.68,2.78,2.52.94,5-1.53,5-1.53s1.58-.15,1.73-.54a6.62,6.62,0,0,1,1.21.23,8.53,8.53,0,0,1,2.87,1.5A15.21,15.21,0,0,1,81.34,20c.21.27.41.56.61.85-1.52.74-7.38,1.16-7.38,1.16-4.68-3.85-10.85-.79-10.85-.79,2.08-.4,3.28,2.22,6.55,1.82s2.07.09,3.15-.41c2.39-1.11-.93,1.17-.93,1.17-3.41,1.56-6.24,8.36-6.24,8.36,3-.57,8.56-9.75,8.56-9.75l7.3-1.33A32.71,32.71,0,0,1,83.85,24Z" fill="#919075"/><path d="M76.69,7.78l0-.14Z" fill="#919075"/><path d="M76.64,7.64v0Z" fill="#919075"/><path d="M94.56,69.7c-1.66,4.55,0,61,0,61s10.87-5.39,14.47.52c0,0-6-55.16-4.17-62.58C104.82,68.67,96.21,65.15,94.56,69.7Z" fill="#919075"/></svg>