<svg id="Layer_18" data-name="Layer 18" xmlns="http://www.w3.org/2000/svg" viewBox="0 0 253.07 38.05"><title>cloud3</title><path d="M30.71,6.12C63,22.41,88.88-6.1,120.38,1.23c12.93,3.26,20.2,9.78,34.74,8.15,16.16-1.63,31.51-4.07,48.47-4.89,12.12,0,34.74-4.07,45.24,4.07C263.37,20,236.71,20.79,226.21,20.79h-38c-12.93,0-23.43,6.52-36.35,7.33C132.5,29.75,122,20,103.42,27.3c-17,6.52-29.89,17.11-47.66,5.7-8.89-6.52-9.69-9.78-21-11.41C25.87,20,13.75,24,5.67,18.34c-11.31-8.15-4-13,7.27-16.3,10.5-3.26,17-.81,25.85,4.07" fill="#f9f6cf"/></svg>