<svg id="Layer_17" data-name="Layer 17" xmlns="http://www.w3.org/2000/svg" viewBox="0 0 502.2 50.21"><title>cloud2</title><path d="M54.09,27.23c28,11.12,42-19.77,68-23.48,30-3.71,44,12.36,70,17.3,48,8.65,56-19.77,94-21,36-1.24,58,23.48,92,25.95,36,1.24,58-30.89,96-24.71,24,3.71,44,32.13,10,37.07-16,2.47-22-8.65-36-11.12-16-1.24-26,2.47-40,7.41-26,7.41-46,18.54-78,14.83-36-4.94-54-19.77-96-18.54-34,1.24-64,8.65-98,11.12-32,2.47-62,3.71-96,3.71-10,0-38,3.71-40-4.94-2-11.12,30-13.59,42-13.59" fill="#f9f6cf"/></svg>