<svg id="Layer_22" data-name="Layer 22" xmlns="http://www.w3.org/2000/svg" viewBox="0 0 113.84 40.63"><title>leaf</title><path d="M6.73,5S6.31,15.3,25,21.23s7.87-3.63,21.42-5.68S68,23.48,76.2,22.23,105.27,11.5,106.58,3.75s7.26-1.1,7.26-1.1S73.58,49.89,27.72,39,6.73,5,6.73,5Z" transform="translate(0 0)" fill="#525142"/><path d="M6.73,5A19,19,0,0,0,6.5,8.48a24.37,24.37,0,0,0,.4,3.92,19.36,19.36,0,0,0,1.55,4.8,19.5,19.5,0,0,0,3.33,4.87,22.57,22.57,0,0,0,5.25,4,34.12,34.12,0,0,0,6.61,2.75c1.2.29,2.38.67,3.62.9l1.85.35.93.17.94.11a74.74,74.74,0,0,0,7.53.68q1.88,0,3.72.1l3.64,0c1.2,0,2.37-.08,3.53-.14l3.38-.17L59,30.25c1.91-.22,3.67-.41,5.23-.57s2.91-.37,4-.51l3.52-.42-3.45.84c-1.1.25-2.43.6-4,.9l-5.2,1c-1.91.36-4,.6-6.2.9l-3.41.34c-1.16.12-2.36.22-3.57.26l-3.71.16H38.4a75.77,75.77,0,0,1-7.77-.63l-1-.13-1-.19-1.93-.38c-1.28-.26-2.53-.66-3.78-1l-1.83-.65-.9-.33c-.3-.12-.58-.26-.88-.39l-1.73-.8L16,27.7a22.32,22.32,0,0,1-5.48-4.57,19.11,19.11,0,0,1-3.26-5.45A18.39,18.39,0,0,1,6,12.52,21.52,21.52,0,0,1,6,8.47,20.17,20.17,0,0,1,6.49,5.9C6.63,5.32,6.73,5,6.73,5Z" transform="translate(0 0)" fill="#b8b694" opacity="0.4" style="isolation:isolate"/></svg>