<svg id="Layer_9" data-name="Layer 9" xmlns="http://www.w3.org/2000/svg" viewBox="0 0 1399.58 132.09"><title>mountain3</title><path d="M0,38.7s15.52-7.25,28.22-5.44S53.6,20,58.14,20.27s23.57-3,29,0S113.44,29,118,28.84,171.47,17.41,186,19s25.39,3.38,33.55,6.56,46.24,14.06,56.21,17.69,72.53-9.89,88.85-12.2,31.78-14.38,41.73-17.41,79.06-2.28,93.91-5.38,27.29-14.18,35.58-4.11S565.87,25.4,570.4,28.88s14.51,1.06,16.32,0,17.23,1.06,19.95,0,17-4.69,20.72-7,18.26-4.19,20.08-2.77,22.67,15,22.67,15,12.44,3.63,17.1,0,17.19-7.87,18.18-8,7.47-4.23,7.47-4.23,6.22-10.87,10.75-10.19,11.79-1.58,15.41,0,12.69,0,12.69,0h8.16s14.51,2,19.95,0,14.51-6.79,19-7.59,19.95,0,19.95,0l11.93,4.45,17-.34s37.42-9.65,48.66-4.11,26.54,11.78,34.76,15,24.91,9.72,24.91,9.72,36.41,4.38,42.24,8,14.73,9.07,20.51,11.79S1050,36,1060.91,37.8s14.51,13.34,19,11.2,18.13,4.48,23.57.26S1126.19,45,1126.19,45s12.69,5.44,16.32,1.81,26.29,5.44,32.64,10,12.69,10.88,18.13,11.79,18.13,3.63,23.57,3.63,7.25-4.53,14.51,0,17.23-.91,20.85,0,40.8-10.88,53.49-10.88a150.72,150.72,0,0,1,28.11,2.72c4.53.91,17.23-2.72,22.67-5.44S1376.43,55,1381,53.21s18.61-2.72,18.61-2.72v81.6H0Z" fill="#b5b1a8"/></svg>