<svg id="Layer_9" data-name="Layer 9" xmlns="http://www.w3.org/2000/svg" viewBox="0 0 1399.58 215.36"><title>mountain2</title><path d="M0,87.57s21.27-8.06,25.72-6.67,13.34,5.56,13.34,5.56L58,84.15l13.34-5.48,23.35,7.78s7.78-2.5,10-7.78l2.22-5.28H133s26.13-9.68,27.24-13.09C163.6,50,175.41,48.37,174.51,42.53s4.66-7,6.88-3.61,7.78,14.18,7.78,14.18v9.21l16.68,1.07c6.67,2.22,8.9-2.22,8.9,5.56v7.78h0l27.8,9.73L291,87.57l22-8.9,11.71,2.22,28,6.67L364.86,99,384,111.34l99.76-1.83,16.44,1.41s19.4,8.9,23.74,1.81,14.35-9.47,17.68-8.28S570.57,119,570.57,119l30,4.59s21.29-7.72,26.8-5.8c9.89,3.44,14.34,6.31,14.34,6.31,8.9-5.1,28.41-5.1,28.41-5.1,8.29,3.34,10.51-3.32,10.51-3.32s12.26-8.36,16.7-7.52,22.22-3.69,22.22-3.69c1.11-15.49,2-22.74,7.78-25.77,10-5.28,15.61,0,15.61,0,5.52.28,7.74,8.22,7.74,8.22L757.37,99l10,1.39,4.45-2c7.78-7.2,13.34-6.33,13.34-6.33s26.39-1,28.91,1.44c5.56,5.48,16.68,6.87,16.68,6.87l17-6.12s88.05,14.68,95.83,12.58,4.81,9.76,13.34-2.1a26.06,26.06,0,0,1,21-11.22l17.33.75s18.53,3.77,17-.75,11.86-24.54,11.86-24.54h11.67c9.45,6.67,50.59,0,50.59,0s7.78,4.9,13.34-1.44,10-10.58,10-10.58L1121,47.21s27.8,10,35.58,13.08,28.91,3.08,28.91,3.08L1201,68.94s34.47-4.17,36.69-7.65,6.67-4.37,6.67-4.37h8.9s15.57-5.86,15.57-9.71V37.06c13.34-4.81,28.91-8.62,28.91-8.62l14.46-4s10-10.38,13.34-10.75,18.9,0,18.9,0h13.34s12.23,3.38,16.68-.16S1399.58,0,1399.58,0V142.33S293.7,229.06,169.16,213.49,0,180.13,0,180.13Z" fill="#d2ccc6"/></svg>