<svg id="Layer_9" data-name="Layer 9" xmlns="http://www.w3.org/2000/svg" viewBox="0 0 542.56 100.43"><title>mountain4</title><path d="M542.56,11.57C533,6.17,518.42-.36,505.82,1.06,485,3.42,406.09,12.89,391.58,9.52S342.62-.61,335.37,0s-15.41,6-19,5.16S308.17.52,305.45,1.06s-9.07,4.1-11.79,4.14-8.16,1.2-11.79,2-17.69.31-17.91,1.9-8.42,9.32-11.12,9.08S222,30.27,216.59,30.9s-21.76-1.53-25.39,0-14.51-4-22.67.12-4.81,5.79-13.18,7.23-12.21,6.43-17.65,3.48-8.86-7.86-10.89-3.14S118,50.46,114.26,49.15s-15.16,7.15-22.14,7-16-.76-29.18,2.72S38.25,67.8,28.14,67.8s-23-2.72-27.87,0C-3.82,70.06,40.5,92.53,58.9,100.43H542.56Z" fill="#c5c1bc"/></svg>