<?xml version="1.0" encoding="utf-8"?>
<!-- Generator: Adobe Illustrator 21.1.0, SVG Export Plug-In . SVG Version: 6.00 Build 0)  -->
<svg version="1.1" id="Layer_14" xmlns="http://www.w3.org/2000/svg" xmlns:xlink="http://www.w3.org/1999/xlink" x="0px" y="0px"
	 viewBox="0 0 1441.5 200.4" style="enable-background:new 0 0 1441.5 200.4;" xml:space="preserve">
<style type="text/css">
	.st0{opacity:0.75;fill:#DDD9B8;enable-background:new    ;}
</style>
<title>mountainreflect</title>
<path class="st0" d="M0,0v73.6c0,0,5.8,5.4,15.4,13.7c2.4,2.1,5.1,4.3,7.9,6.7C36,102.4,44,115.4,55,126.4c24,23,58,13,85,25
	c8,3,9,22,20,20c18.5-2.5,32.2-13.5,44.9-26.6c2.6-2.6,5.1-5.3,7.6-8.1C235,113.4,276,76.4,302,103.4c19.6,21,43.1,30.7,68.5,35.7
	c3.7,0.7,7.4,1.4,11.1,1.9c8.4,1.4,17.4,1.4,25.4,4.4c26.1,8.1,49,28.4,75.1,31.6c3,0.4,5.9,0.5,8.9,0.4c40-12,72-48,113-51
	c15-1,29-1.8,42.1-5c3.3-0.8,6.5-1.8,9.8-2.8c13-3.2,26-9.2,39-7.2c18,2,36,4,53-4c26-12,54,11,82.5,16.3c3,0.7,6,1.4,9,2
	c8.7,1.9,17.6,2.9,26.5,3c4,0,8-0.2,12.1-0.6c48-5.7,94-48.7,141-28.7c10.8,4.2,18.9,13.9,29.2,21.2c2.1,1.5,4.3,2.9,6.5,4.1
	c2.6,0.9,5.1,2,7.5,3.2c26.7,16.5,70.7,0.5,84.7,39.5c3,10,33-13,37.6,9.6c1,1.9,2.1,3.8,3.3,5.6c4.8,7.2,10.6,13.2,21.6,13.9
	c3.7,0.7,7.3,1.4,11,2c20.5,3.2,40.7,3.3,59.5-4.7c2.7-1.2,5.4-2.5,7.9-4c17.2-6.3,14.2-25.3,15.2-39.3c0-2,3-5,5-6
	c2.8-1,5.6-2,8.5-3c33.5-10,66.5-15,98.5-36c4-3,11,0,16-3c2-3,5-5,6.2-8.6c1.2-2.5,2.1-5.1,2.7-7.9c5.2-23.1,1.5-59.5,1.5-86H0z"/>
</svg>
