<svg id="Layer_1" data-name="Layer 1" xmlns="http://www.w3.org/2000/svg" viewBox="0 0 987 593.58"><title>wave1</title><path d="M987,539.83C652.44,653,147.79,579.51,58.67,324.41-9.48,129.3,213.14,9.08,313.43,139.58l-10.79,23c-40.95-27.82-136.86,29.4-68.8,124.58,88.46,123.7,411.11,192,609.42,125Z" fill="#192236"/><path d="M843.33,412.33q-12.56,4.5-25.42,8.13c-8.56,2.42-17.2,4.63-25.9,6.53-17.4,3.81-35,6.7-52.69,8.83s-35.49,3.33-53.29,3.95-35.64.6-53.44-.15-35.57-2.15-53.26-4.2-35.31-4.61-52.83-7.77-34.94-6.8-52.24-10.95q-13-3.15-25.85-6.61t-25.62-7.48c-8.48-2.68-16.95-5.44-25.34-8.38s-16.74-6.06-25-9.39a496.4,496.4,0,0,1-48.55-22.35,355.81,355.81,0,0,1-45.36-28.43c-14.31-10.7-27.77-22.73-39.28-36.56a173.47,173.47,0,0,1-15.54-22,124.3,124.3,0,0,1-11.11-24.7,87.15,87.15,0,0,1-4.16-26.88,70.37,70.37,0,0,1,5.45-26.69,71.46,71.46,0,0,1,15.19-22.51,72.92,72.92,0,0,1,22.33-15.24,67.66,67.66,0,0,1,12.86-4.21,62.65,62.65,0,0,1,6.68-1.1,54,54,0,0,1,6.76-.27A45.6,45.6,0,0,1,291,156a38.31,38.31,0,0,1,6.19,2.66,37.9,37.9,0,0,1,5.56,3.77l-.25.31a37.33,37.33,0,0,0-5.65-3.42,39.61,39.61,0,0,0-6.15-2.33,41.06,41.06,0,0,0-6.44-1.27c-1.08-.16-2.18-.19-3.27-.28s-2.19-.08-3.28,0a62.13,62.13,0,0,0-25.28,6.23,73.26,73.26,0,0,0-21.09,15.21,68,68,0,0,0-14.06,21.69,68.9,68.9,0,0,0-4.77,25.32,84,84,0,0,0,4.17,25.57,120.06,120.06,0,0,0,10.7,23.85,163.41,163.41,0,0,0,15,21.63c11.16,13.6,24.31,25.53,38.38,36.19a361,361,0,0,0,44.62,28.65c31.07,17.06,64.06,30.61,97.87,41.46A705.17,705.17,0,0,0,526.8,425.81q26.3,4.21,52.82,6.74t53.1,3.51c17.72.64,35.47.84,53.2.35s35.44-1.64,53.07-3.51,35.22-4.36,52.61-7.84A471.8,471.8,0,0,0,843.2,412Z" fill="#4b5c8d"/><path d="M856.33,423.75C645.63,495,304.66,426,218.17,291.34c-71.08-110.72,48.28-170,87.22-132.28" fill="none" stroke="#5a6894" stroke-miterlimit="10" stroke-width="3.73"/><path d="M869.39,435.36c-223.08,75.48-582,5.49-666.89-139.86-73.88-126.5,66.19-184.93,105.64-140" fill="none" stroke="#69749a" stroke-miterlimit="10" stroke-width="3.45"/><path d="M882.46,447c-235.46,79.67-612,8.46-695.62-147.32-76.45-142.46,84.09-199.89,124.07-147.7" fill="none" stroke="#7880a1" stroke-miterlimit="10" stroke-width="3.18"/><path d="M895.53,458.57c-247.85,83.86-641.79,11.28-724.35-154.78-78.82-158.54,102-214.85,142.49-155.4" fill="none" stroke="#878ca8" stroke-miterlimit="10" stroke-width="2.91"/><path d="M908.59,470.18c-260.23,88-671.37,14-753.08-162.24-81-174.71,119.9-229.81,160.92-163.11" fill="none" stroke="#9698af" stroke-miterlimit="10" stroke-width="2.64"/><path d="M921.66,481.79C649,574,220.86,498.48,139.84,312.1c-83-190.94,137.81-244.77,179.34-170.82" fill="none" stroke="#a4a5b5" stroke-miterlimit="10" stroke-width="2.36"/><path d="M934.72,493.4c-285,96.43-730.1,19.32-810.55-177.15C39.32,109,279.89,56.52,321.94,137.72" fill="none" stroke="#b3b1bc" stroke-miterlimit="10" stroke-width="2.09"/><path d="M947.79,505C650.4,605.62,188.5,526.95,108.51,320.4,21.93,96.85,282.12,45.72,324.7,134.17" fill="none" stroke="#c2bdc3" stroke-miterlimit="10" stroke-width="1.82"/><path d="M960.85,516.61c-309.77,104.81-788.4,24.54-868-192.06C4.67,84.66,284.36,34.91,327.46,130.61" fill="none" stroke="#d1c9ca" stroke-miterlimit="10" stroke-width="1.55"/><path d="M973.92,528.22c-322.16,109-817.43,27.15-896.75-199.52C-12.49,72.45,286.6,24.1,330.22,127.06" fill="none" stroke="#e0d5d0" stroke-miterlimit="10" stroke-width="1.27"/><path d="M987,539.88c-60,20.44-122.35,33.57-185.21,41.47a1171.09,1171.09,0,0,1-189.77,8,1143.62,1143.62,0,0,1-188.56-22.6,945.45,945.45,0,0,1-92-23.87,711.65,711.65,0,0,1-88.55-34.4c-14.32-6.78-28.41-14.07-42.1-22.06a442.7,442.7,0,0,1-39.8-26c-25.55-18.73-49-40.65-67.83-66.24A229.89,229.89,0,0,1,69,353.23,211.82,211.82,0,0,1,60.43,331c-2.48-7.53-4.73-15.14-6.7-22.82a286.81,286.81,0,0,1-8.14-46.84,214.17,214.17,0,0,1,1-47.52,169.87,169.87,0,0,1,12.82-45.74,154.61,154.61,0,0,1,25.61-40A166.82,166.82,0,0,1,121.3,97.48a189.29,189.29,0,0,1,43.09-20A202.5,202.5,0,0,1,211,68.44,181.22,181.22,0,0,1,258.39,71c15.54,3,30.8,8.35,44.17,16.94a85,85,0,0,1,18,15.4A70.05,70.05,0,0,1,333,123.48l-.09,0a69.9,69.9,0,0,0-12.48-20.05A84.75,84.75,0,0,0,302.39,88.2c-13.37-8.51-28.6-13.74-44.1-16.72A180.68,180.68,0,0,0,211,69a201.84,201.84,0,0,0-46.44,9.15,188.52,188.52,0,0,0-42.86,20,165.94,165.94,0,0,0-36,30.59,155.91,155.91,0,0,0-25.42,39.76A168.88,168.88,0,0,0,47.58,214a213.2,213.2,0,0,0-1,47.3A285.86,285.86,0,0,0,54.64,308c2,7.66,4.21,15.25,6.67,22.77a210.89,210.89,0,0,0,8.57,22.09,229,229,0,0,0,24.06,40.77,282.34,282.34,0,0,0,31.28,35.59,351.2,351.2,0,0,0,36.27,30.56,442,442,0,0,0,39.68,26c13.65,8,27.71,15.33,42,22.14a710.17,710.17,0,0,0,88.44,34.53,899.35,899.35,0,0,0,91.92,23.89c62.06,12.77,125.22,19.87,188.51,22.21q47.48,1.72,95-.24t94.67-7.66c31.43-3.89,62.71-9.08,93.65-15.84a875.43,875.43,0,0,0,91.62-25Z" fill="#efe1d7"/><path d="M975.32,535.65c-268.68,81.55-605.46,51.67-807.55-77.29C47.25,381.45,29.29,206.21,101.35,133.89c45.48-45.65,138.18-60.66,171.56-10.24,27.88,42.1,8,96.36-35.19,108.79-3.22,14.63,8.88,23.5,21.82,24.4,9.78.68,18.53-4.09,22.58-11.45,6.8,10.4,19,17.76,33.38,18.76,23,1.6,42.9-13.79,44.36-34.37a33.56,33.56,0,0,0-.6-8.92,56.07,56.07,0,0,0,9.31,1.45c27.58,1.91,51.35-16.5,53.09-41.13.91-12.79-4.31-24.74-13.4-33.54,12.3-9.14,20.52-22.62,21.62-38.11C432,79.31,406.38,52.94,372.58,50.6l-1.08-.05a33.62,33.62,0,0,0,1.59-8C374.54,22,357,4,334,2.38a44.93,44.93,0,0,0-25.88,5.95,22.49,22.49,0,0,0-32.29-2.76l-1.5-.26a18.23,18.23,0,0,0-9.62-3.5,18.5,18.5,0,0,0-8.21,1.27C121.44-7.92-55.9,106.46,17,330.94c77,237.25,629.38,331.4,970,208.9Z" fill="#efe1d7"/></svg>