<svg id="Layer_5" data-name="Layer 5" xmlns="http://www.w3.org/2000/svg" viewBox="0 0 1307 468.42"><title>wave5</title><path d="M1305.23,271.75C1121.06-302,576.64,218.27.09,218.27V288C615.71,366.53,1305.23-86.73,1305.23,468.42Z" transform="translate(0 0)" fill="#192236"/><path d="M.09,218.07c61.12-.77,122-6.93,182.25-17,30.12-5,60.07-11,89.85-17.72s59.41-14.14,88.92-22,58.91-16.19,88.2-24.88q22-6.52,43.87-13.28c14.59-4.52,29.16-9.15,43.72-13.78s29.12-9.27,43.65-14l43.6-14.18,43.64-14.06q21.84-7,43.75-13.72c29.23-9,58.59-17.57,88.23-25.14s59.53-14.29,89.76-19.29S950.3.56,981,.06a413.72,413.72,0,0,1,46,1.79,337.28,337.28,0,0,1,45.49,7.51c3.72,1,7.47,1.84,11.16,3l5.55,1.6,5.5,1.76,2.75.89,2.72,1,5.44,1.94,5.38,2.11,2.69,1.06,2.65,1.14,5.3,2.29,5.23,2.45,2.61,1.23,2.57,1.31,5.14,2.63,5.05,2.8,2.52,1.41,2.48,1.49,5,3,4.85,3.14c25.8,16.85,48.38,38.32,67.41,62.38s34.77,50.64,48,78.25c6.62,13.81,12.56,27.93,18,42.21s10.43,28.76,15,43.36l-.38.12c-4.87-14.48-10.08-28.84-15.78-43s-11.9-28.12-18.64-41.8c-13.49-27.35-29.5-53.49-48.61-77.18s-41.52-44.71-67.07-61.1a267.22,267.22,0,0,0-83.43-35.21,338.8,338.8,0,0,0-44.91-7.42,431.76,431.76,0,0,0-45.55-1.86c-30.44.36-60.83,3.53-90.92,8.41s-60,11.32-89.59,18.66-59.07,15.51-88.38,24.16q-22,6.49-43.87,13.27l-21.89,6.81-21.84,6.95-43.65,14-43.6,14.16-43.65,14q-21.82,7-43.72,13.84c-29.2,9.06-58.5,17.83-88,26C303,180.76,243.26,194.33,182.83,204c-30.2,4.89-60.61,8.52-91.09,11.09-15.24,1.31-30.52,2.16-45.8,2.72s-30.57.8-45.86.61Z" transform="translate(0 0)" fill="#4b5c8d"/><path d="M.09,225.24c580.46,7.86,1139.39-505.73,1305.14,66.17" transform="translate(0 0)" fill="none" stroke="#465684" stroke-miterlimit="10" stroke-width="3.7"/><path d="M.09,232.21C584.46,247.92,1157.89-259,1305.23,311.08" transform="translate(0 0)" fill="none" stroke="#41507c" stroke-miterlimit="10" stroke-width="3.4"/><path d="M.09,239.18c588.28,23.57,1176.22-476.61,1305.14,91.57" transform="translate(0 0)" fill="none" stroke="#3c4b73" stroke-miterlimit="10" stroke-width="3.1"/><path d="M.09,246.15C592.27,277.57,1194.72-215.9,1305.23,350.41" transform="translate(0 0)" fill="none" stroke="#37456a" stroke-miterlimit="10" stroke-width="2.8"/><path d="M.09,253.11c596.09,39.28,1213.05-447.49,1305.14,117" transform="translate(0 0)" fill="none" stroke="#323f62" stroke-miterlimit="10" stroke-width="2.5"/><path d="M.09,260.08c600,47.14,1231.47-432.93,1305.14,129.66" transform="translate(0 0)" fill="none" stroke="#2d3959" stroke-miterlimit="10" stroke-width="2.2"/><path d="M.09,267.05C604,322,1250-151.32,1305.23,409.42" transform="translate(0 0)" fill="none" stroke="#283350" stroke-miterlimit="10" stroke-width="1.9"/><path d="M.09,274C607.9,336.88,1268.39-129.79,1305.23,429.08" transform="translate(0 0)" fill="none" stroke="#232e47" stroke-miterlimit="10" stroke-width="1.6"/><path d="M.09,281C611.81,351.7,1286.81-108.26,1305.23,448.75" transform="translate(0 0)" fill="none" stroke="#1e283f" stroke-miterlimit="10" stroke-width="1.3"/><path d="M.09,287.91q46.33,5.74,93,7.77,23.31,1.1,46.66,1.31c15.56.15,31.12.11,46.67-.24s31.1-.9,46.64-1.65,31.07-1.78,46.58-2.94q46.54-3.56,92.91-9c61.82-7.24,123.35-16.81,184.69-27.35,30.68-5.25,61.3-10.83,91.9-16.48L741,222.45c30.63-5.55,61.28-10.95,92-15.86s61.56-9.36,92.5-12.79,62-5.92,93.16-6.48,62.38.76,93.15,5.84c7.69,1.24,15.32,2.84,22.92,4.59s15.1,3.89,22.5,6.36A222.44,222.44,0,0,1,1199.93,223c1.71.94,3.35,2,5,3s3.33,2,4.92,3.16l4.83,3.3,4.7,3.48a185.42,185.42,0,0,1,17.67,15.32,190.1,190.1,0,0,1,15.54,17.47c1.23,1.52,2.34,3.12,3.51,4.68l1.74,2.35,1.64,2.42c1.08,1.62,2.2,3.22,3.26,4.86l3.07,5a210.05,210.05,0,0,1,10.92,20.66c1.7,3.51,3.14,7.13,4.67,10.71.76,1.8,1.4,3.63,2.11,5.45s1.42,3.63,2,5.48a319,319,0,0,1,12,45.11c5.79,30.62,7.76,61.83,7.75,92.94h-.1c-.11-31.11-2.29-62.28-8.14-92.85a318.39,318.39,0,0,0-12.09-45c-.6-1.85-1.35-3.64-2-5.46s-1.36-3.64-2.11-5.43c-1.53-3.57-3-7.18-4.68-10.67a209.33,209.33,0,0,0-10.93-20.57l-3.07-4.95c-1.05-1.63-2.17-3.22-3.26-4.83l-1.64-2.4-1.74-2.34c-1.17-1.55-2.28-3.14-3.51-4.65a189.28,189.28,0,0,0-15.51-17.35,184.55,184.55,0,0,0-17.62-15.2l-4.69-3.45-4.82-3.27c-1.59-1.12-3.26-2.11-4.91-3.13s-3.28-2.07-5-3A225.86,225.86,0,0,0,1156.93,205c-7.37-2.45-14.88-4.47-22.42-6.34s-15.18-3.35-22.85-4.58c-30.68-5.08-61.89-6.4-93-5.86s-62.15,3-93.07,6.44C863.77,201.63,802.36,212.05,741.1,223l-91.86,16.73q-45.93,8.38-91.91,16.47C496,266.87,434.49,276.57,372.66,283.92s-124,12.36-186.21,13.52c-15.56.32-31.13.34-46.69.15s-31.13-.64-46.67-1.4Q46.43,294,.08,288Z" transform="translate(0 0)" fill="#192236"/></svg>