<svg id="Layer_6" data-name="Layer 6" xmlns="http://www.w3.org/2000/svg" viewBox="0 0 446.64 331.27"><title>wave6</title><path d="M446.33,305.46c-157.83,57.73-388.09,11-421-129.9C.18,67.79,106.65,4.78,148.69,77.55L143,90c-18-15.77-64,14.36-35.7,67.37,36.81,68.91,183.34,110.48,276.9,76.25Z" fill="#192236"/><path d="M384.25,233.85a187.46,187.46,0,0,1-49.77,12.24,242.38,242.38,0,0,1-25.69,1.51c-4.29,0-8.58,0-12.87-.19s-8.57-.46-12.84-.85-8.53-.91-12.78-1.47-8.47-1.32-12.68-2.12q-12.63-2.36-25-5.72a363.81,363.81,0,0,1-48.48-16.6A248.79,248.79,0,0,1,161,209.47c-3.75-2.08-7.47-4.23-11.09-6.54s-7.18-4.73-10.62-7.32-6.81-5.28-10-8.15a118.13,118.13,0,0,1-9.25-9.08,110.91,110.91,0,0,1-8.25-10.06,97.48,97.48,0,0,1-6.89-11.1,75.89,75.89,0,0,1-5.2-12,62.48,62.48,0,0,1-2.93-12.87,53.61,53.61,0,0,1,.11-13.27,45.57,45.57,0,0,1,3.74-12.76,41.79,41.79,0,0,1,7.42-11,37.11,37.11,0,0,1,10.62-7.85,26.47,26.47,0,0,1,12.82-2.87,18.31,18.31,0,0,1,6.42,1.48,15.19,15.19,0,0,1,5.25,3.83l-.29.28a15.84,15.84,0,0,0-11.41-4.07,26,26,0,0,0-11.71,3.44,37.8,37.8,0,0,0-15.83,18.23,41.85,41.85,0,0,0-3.07,11.81,49.5,49.5,0,0,0,.1,12.25,66.49,66.49,0,0,0,2.79,12,86.82,86.82,0,0,0,4.81,11.48,96,96,0,0,0,14.26,20.54c2.78,3.15,5.77,6.11,8.85,9s6.29,5.61,9.62,8.22a215.9,215.9,0,0,0,43.47,26.22A252.81,252.81,0,0,0,233,235.56,344.86,344.86,0,0,0,283.39,243a304.35,304.35,0,0,0,50.8.1,236.78,236.78,0,0,0,25.2-3.42,206.76,206.76,0,0,0,24.72-6.24Z" fill="#4b5c8d"/><path d="M394.54,245.63c-104.27,38.14-266.17-4.81-300.74-84.42-29.93-68.93,35-99.14,51.73-74.68" fill="none" stroke="#667299" stroke-miterlimit="10" stroke-width="3.5"/><path d="M404.9,257.59C289.91,299.65,113.23,255,80.31,165c-31.14-85.1,51-113.75,67.75-82" fill="none" stroke="#8288a6" stroke-miterlimit="10" stroke-width="3"/><path d="M415.26,269.56c-125.7,46-316.8-.55-348.43-100.75-32-101.39,67-128.35,83.77-89.3" fill="none" stroke="#9d9eb2" stroke-miterlimit="10" stroke-width="2.5"/><path d="M425.61,281.52C289.21,331.42,83.91,283,53.34,172.61c-32.61-117.75,83-143,99.8-96.61" fill="none" stroke="#b8b5be" stroke-miterlimit="10" stroke-width="2"/><path d="M436,293.49C288.85,347.3,69.52,297,39.86,176.42c-33-134.13,99-157.56,115.82-103.92" fill="none" stroke="#d4cbcb" stroke-miterlimit="10" stroke-width="1.5"/><path d="M446.35,305.5c-28.8,10.71-59,17.33-89.55,20.81a456.53,456.53,0,0,1-46,2.88q-23,.24-46-1.84a432.3,432.3,0,0,1-90.29-17.61,351.33,351.33,0,0,1-43-16.46,264.17,264.17,0,0,1-40-22.8A191.34,191.34,0,0,1,57,240a140.41,140.41,0,0,1-24.52-38.91,126.75,126.75,0,0,1-6.82-22A210.55,210.55,0,0,1,22,156.29c-1.56-15.29-1.29-30.88,1.95-46a107.27,107.27,0,0,1,7.17-21.95A91.9,91.9,0,0,1,43.21,68.72,85.78,85.78,0,0,1,80.35,42.06a82.23,82.23,0,0,1,22.52-4.86,70.33,70.33,0,0,1,22.92,2,50.62,50.62,0,0,1,20.37,10.5A38.86,38.86,0,0,1,158.27,69l-.1,0A38.66,38.66,0,0,0,146,50a50.75,50.75,0,0,0-20.29-10.26,69.79,69.79,0,0,0-22.76-1.91,81.59,81.59,0,0,0-22.32,4.93A85,85,0,0,0,43.92,69.29a98.77,98.77,0,0,0-19,41.24c-3.22,15-3.51,30.46-2,45.67a209.61,209.61,0,0,0,3.63,22.67,125.82,125.82,0,0,0,6.75,21.89,141.83,141.83,0,0,0,24.29,38.71A190.63,190.63,0,0,0,91.84,270a261.11,261.11,0,0,0,39.83,22.9,332.25,332.25,0,0,0,42.92,16.52,432.88,432.88,0,0,0,90.25,17.21c15.28,1.32,30.63,1.84,46,1.69a455.76,455.76,0,0,0,45.92-2.69,414.84,414.84,0,0,0,45.38-7.5,368.08,368.08,0,0,0,44.21-12.71Z" fill="#efe1d7"/><path d="M441.09,303c-126.46,41.24-280.74,20.56-369.75-52.68C18.25,206.66,15.59,110.42,51.12,71.72c22.43-24.43,65.64-31.47,79.41-3.42,11.5,23.42.62,52.9-19.71,59.15-2,8,3.34,13,9.28,13.65a10.94,10.94,0,0,0,10.78-6,18.77,18.77,0,0,0,14.78,10.71c10.57,1.17,20.22-7,21.55-18.26a21.74,21.74,0,0,0,0-4.9,21.71,21.71,0,0,0,4.25.91c12.65,1.4,24.2-8.39,25.79-21.86a25.08,25.08,0,0,0-5.1-18.55,31.22,31.22,0,0,0,11.19-20.61c2-16.51-9-31.29-24.53-33l-.5,0a21.91,21.91,0,0,0,1-4.37c1.33-11.26-6.16-21.33-16.72-22.5a18.53,18.53,0,0,0-12.12,2.93A9.32,9.32,0,0,0,143.41.84a9.46,9.46,0,0,0-7.74,2.81L135,3.49A7.38,7.38,0,0,0,126.84,2C64.93-5.71-20.48,54.68,5.9,178.6c27.89,131,279.48,189.62,440.43,126.86Z" fill="#efe1d7"/><path d="M441.08,303.12a430.68,430.68,0,0,1-91.19,19.15,458,458,0,0,1-93.3-.19,416.24,416.24,0,0,1-91.18-19.83c-29.46-10.12-57.84-23.91-83.08-42.32-3.21-2.22-6.21-4.73-9.29-7.12L70.74,251,68.53,249l-2.21-1.94c-.74-.64-1.4-1.37-2.1-2.06a110.66,110.66,0,0,1-14.86-18.17,139.14,139.14,0,0,1-18.17-43,155.07,155.07,0,0,1-3.78-23.12A162.06,162.06,0,0,1,27,137.28c.91-15.57,4-31.16,10.51-45.43A79.16,79.16,0,0,1,50.12,72.12,69,69,0,0,1,90.71,50.34c7.72-1.1,15.83-.73,23.17,2.18a32.17,32.17,0,0,1,10,6.19,31.59,31.59,0,0,1,7,9.42,47.13,47.13,0,0,1,3.76,11.1,48.55,48.55,0,0,1,.89,11.68,46.8,46.8,0,0,1-6.71,22.25,36.87,36.87,0,0,1-7.59,8.93,33,33,0,0,1-4.84,3.36,31.26,31.26,0,0,1-5.41,2.33l.23-.24a14,14,0,0,0-.37,3.87,10.33,10.33,0,0,0,1,3.72,10,10,0,0,0,5.66,5,10.35,10.35,0,0,0,7.55,0,11.13,11.13,0,0,0,5.59-5.12l.35-.66.33.68a18.84,18.84,0,0,0,9.55,9.18,17.84,17.84,0,0,0,13.18.22A19.6,19.6,0,0,0,164,135.73a21.14,21.14,0,0,0,2.75-13l-.08-.7.68.22a21.38,21.38,0,0,0,3.67.83c.62.1,1.25.09,1.88.14l.94.05.94,0a20.7,20.7,0,0,0,7.31-1.62,23.69,23.69,0,0,0,11.17-9.74,24,24,0,0,0,2.87-6.94,25.47,25.47,0,0,0,.75-7.48,24.37,24.37,0,0,0-5.15-13.9l-.33-.42.41-.34a30.31,30.31,0,0,0,9.59-14.06,30.68,30.68,0,0,0,1.52-8.46,30.13,30.13,0,0,0-.8-8.54A29.17,29.17,0,0,0,193.63,37a28.49,28.49,0,0,0-7.13-4.7,27.71,27.71,0,0,0-8.25-2.15l-.84-.1.26-.79a20.07,20.07,0,0,0,1.05-5.74,20.27,20.27,0,0,0-.55-5.8,19.83,19.83,0,0,0-2.16-5.4,20.32,20.32,0,0,0-3.64-4.52,18.89,18.89,0,0,0-4.87-3.12,17.46,17.46,0,0,0-16.63,1.5l-.68.44-.4-.71a8.57,8.57,0,0,0-6.34-4.31,8.67,8.67,0,0,0-7.22,2.58l-.31.32-.45-.11-.68-.16-.22-.05-.16-.15a6.57,6.57,0,0,0-7.26-1.28l-.21.09-.23,0c-15.48-1.9-31.32.59-45.88,6A114.18,114.18,0,0,0,41.59,33.67a114.37,114.37,0,0,0-15.21,17.7c-.56.8-1.16,1.57-1.68,2.39l-1.56,2.47-1.56,2.47c-.26.41-.53.82-.77,1.24l-.7,1.28-2.8,5.13c-.87,1.75-1.66,3.52-2.5,5.29-.4.89-.85,1.75-1.22,2.66L12.51,77l-1.08,2.72c-.35.91-.74,1.8-1,2.74L8.6,88.05l-.45,1.39-.37,1.41L7,93.69,6.3,96.52l-.36,1.42-.28,1.44-1.13,5.74-.28,1.44L4,108l-.4,2.9c-.24,1.94-.58,3.86-.74,5.81a194.84,194.84,0,0,0,1.4,46.74c.44,3.89,1.3,7.71,2,11.56l.54,2.88c.18,1,.44,1.9.66,2.85.46,1.89.87,3.79,1.48,5.65A120,120,0,0,0,17.62,208c7.13,13.88,16.9,26.31,28,37.28A216.35,216.35,0,0,0,82.5,274.17c26.58,16.58,55.84,28.65,85.91,37.45a474.59,474.59,0,0,0,92.45,16.84,479.27,479.27,0,0,0,94-1.39c31.16-3.63,62.07-10.44,91.41-21.72v.22Zm0-.2,5.29,2.43.26.12-.27.1c-29.28,11.5-60.18,18.6-91.39,22.42a480.41,480.41,0,0,1-94.22,1.78,476.09,476.09,0,0,1-92.82-16.52c-7.56-2.21-15.07-4.55-22.5-7.17s-14.79-5.42-22-8.53-14.41-6.38-21.41-10-13.87-7.5-20.56-11.68a218.38,218.38,0,0,1-37.26-29.09C32.95,235.69,23,223.11,15.78,209A122.13,122.13,0,0,1,7,187c-.61-1.89-1-3.82-1.51-5.75-.22-1-.49-1.92-.67-2.89l-.55-2.91c-.7-3.88-1.57-7.74-2-11.66A194.24,194.24,0,0,1,.86,116.5c.16-2,.51-3.92.75-5.88L2,107.68l.21-1.47.29-1.45,1.16-5.82L4,97.48,4.33,96l.75-2.87.75-2.87.38-1.43.46-1.41,1.85-5.64c.28-.95.67-1.86,1-2.78l1.1-2.76,1.1-2.76c.37-.92.83-1.8,1.24-2.7.85-1.79,1.67-3.59,2.55-5.36l2.86-5.21.71-1.3c.25-.43.52-.84.79-1.26l1.59-2.51,1.59-2.51c.53-.84,1.15-1.61,1.71-2.42A121.42,121.42,0,0,1,59,17.7,117.7,117.7,0,0,1,80.22,7.19c14.82-5.51,30.94-8,46.72-6l-.43.06a8.2,8.2,0,0,1,9,1.62l-.38-.2.69.17-.76.21A10.68,10.68,0,0,1,139,.59a9.93,9.93,0,0,1,4.64-.5A9.8,9.8,0,0,1,148,1.76a10.53,10.53,0,0,1,3.12,3.43L150,4.93a19,19,0,0,1,18-1.55,20.34,20.34,0,0,1,5.25,3.4,21.75,21.75,0,0,1,3.9,4.87,21.24,21.24,0,0,1,2.29,5.79,21.66,21.66,0,0,1,.56,6.19A21.44,21.44,0,0,1,179,29.73l-.58-.89A29,29,0,0,1,187,31.14a29.78,29.78,0,0,1,7.46,5,30.42,30.42,0,0,1,8.8,15.32,31.33,31.33,0,0,1,.8,8.88,31.84,31.84,0,0,1-1.61,8.76,31.5,31.5,0,0,1-10,14.54l.08-.75a25.43,25.43,0,0,1,5.34,14.52,26.5,26.5,0,0,1-.8,7.77,25,25,0,0,1-3,7.21,24.66,24.66,0,0,1-11.66,10.11,21.64,21.64,0,0,1-7.64,1.67l-1,0-1-.05c-.65-.05-1.31,0-2-.15a22.3,22.3,0,0,1-3.83-.87l.59-.48a22,22,0,0,1-2.9,13.56,20.46,20.46,0,0,1-10.53,9,18.66,18.66,0,0,1-13.78-.27,19.62,19.62,0,0,1-9.92-9.59h.68a11.88,11.88,0,0,1-6,5.45,11.08,11.08,0,0,1-8.07,0,10.72,10.72,0,0,1-6-5.34,11,11,0,0,1-1-4,14.65,14.65,0,0,1,.4-4.07l0-.18.19-.06a30.6,30.6,0,0,0,5.29-2.26,32.34,32.34,0,0,0,4.74-3.27,36.25,36.25,0,0,0,7.48-8.76,45.92,45.92,0,0,0,6.59-22,47.9,47.9,0,0,0-.9-11.52,46.45,46.45,0,0,0-3.73-10.93,30.89,30.89,0,0,0-6.85-9.2,31.45,31.45,0,0,0-9.75-6c-7.19-2.84-15.17-3.19-22.78-2.09A68,68,0,0,0,50.87,72.79,78.1,78.1,0,0,0,38.56,92.32c-6.33,14.14-9.36,29.6-10.18,45a160.64,160.64,0,0,0,.5,23.2,153.53,153.53,0,0,0,3.86,22.88,138.85,138.85,0,0,0,18,42.49,108.93,108.93,0,0,0,14.65,17.87c.69.67,1.34,1.39,2.07,2l2.17,1.91,2.17,1.91,2.28,1.8c3.06,2.37,6,4.85,9.24,7.06,25.09,18.26,53.25,32.09,82.57,42.21a419.61,419.61,0,0,0,90.8,20,456.84,456.84,0,0,0,93.06.64A431.69,431.69,0,0,0,441.1,302.92Z" fill="#192236"/></svg>