<svg id="Layer_4" data-name="Layer 4" xmlns="http://www.w3.org/2000/svg" viewBox="0 0 815.97 233.13"><title>wave4</title><path d="M815.84,172.2C568.45-199.53,316.73,163.66.15,163.66v51c338,57.52,569.86-187.86,771,21.86Z" transform="translate(-0.04 -3.42)" fill="#192236"/><path d="M.15,163.46c37.71-.75,75.14-6.32,111.67-15.26S184,127.06,219.28,113.78c17.63-6.63,35.14-13.59,52.59-20.73L298,82.26l26.07-11c34.73-14.69,69.45-29.53,105.12-42,8.91-3.12,17.9-6,26.95-8.77,4.52-1.37,9.09-2.6,13.63-3.91s9.16-2.35,13.76-3.47a361.73,361.73,0,0,1,56.08-8.93c4.72-.47,9.47-.51,14.21-.74,2.37-.14,4.75-.07,7.12-.07l7.12,0,7.12.34,3.56.18,1.78.1,1.77.17,7.1.69c1.18.13,2.37.21,3.55.37l3.53.52a237.24,237.24,0,0,1,55,14.6c2.22.85,4.37,1.89,6.55,2.82l6.52,2.88c4.23,2.16,8.52,4.23,12.7,6.47l6.19,3.53,3.09,1.77,1.55.88,1.5,1,6,3.85,3,1.93,1.49,1,1.45,1a331.69,331.69,0,0,1,43.73,36.26A471.68,471.68,0,0,1,783.09,126l8.66,11.22c1.46,1.85,2.8,3.8,4.19,5.71l4.13,5.75,4.12,5.75c1.35,1.93,2.64,3.91,4,5.86L816,172.09l-.33.22c-10.92-15.37-22.11-30.54-34.15-45A496.85,496.85,0,0,0,743.1,86a328.21,328.21,0,0,0-43.73-35.32,260.31,260.31,0,0,0-49.45-26.33C615.18,10.55,577.26,5.19,539.89,8a377.28,377.28,0,0,0-55.63,8.27c-18.34,4.11-36.45,9.27-54.35,15.13-4.47,1.49-8.95,2.94-13.38,4.53s-8.89,3.1-13.31,4.75l-6.64,2.43L390,45.6l-6.59,2.54-6.57,2.61Q350.54,61.2,324.6,72.48L272.74,95.1c-17.31,7.49-34.7,14.84-52.26,21.78-35.12,13.85-71.13,25.69-108,34.3A516,516,0,0,1,56.7,161l-7,.76c-2.35.23-4.69.55-7.05.68-4.71.31-9.42.7-14.14,1s-9.44.37-14.15.5l-14.16,0Z" transform="translate(-0.04 -3.42)" fill="#4b5c8d"/><path d="M.15,173.87C321,185.37,600-176.87,806.91,185.07" transform="translate(-0.04 -3.42)" fill="none" stroke="#41507c" stroke-miterlimit="10" stroke-width="3.4"/><path d="M.15,184.07c325.16,23,632.72-339.6,797.83,13.87" transform="translate(-0.04 -3.42)" fill="none" stroke="#37456a" stroke-miterlimit="10" stroke-width="2.8"/><path d="M.15,194.28C329.6,228.79,665.72-134.19,789,210.81" transform="translate(-0.04 -3.42)" fill="none" stroke="#2d3959" stroke-miterlimit="10" stroke-width="2.2"/><path d="M.15,204.48c333.74,46,698.42-317.32,780,19.2" transform="translate(-0.04 -3.42)" fill="none" stroke="#232e47" stroke-miterlimit="10" stroke-width="1.6"/><path d="M.16,214.64c35.78,5.86,72.19,7.21,108.34,5.14,18.08-1,36.11-2.88,54.05-5.38s35.8-5.57,53.55-9.18c35.51-7.2,70.6-16.37,105.41-26.47s69.27-21.35,103.78-32.42c17.25-5.56,34.51-11.1,51.83-16.44s34.71-10.48,52.24-15.11,35.19-8.81,53-12,35.92-5.42,54.09-5.6a190.83,190.83,0,0,1,27.18,1.59c4.51.6,9,1.44,13.41,2.43A134.25,134.25,0,0,1,690.18,105a119.8,119.8,0,0,1,12.55,5.34,99.58,99.58,0,0,1,22.44,15.4,114.61,114.61,0,0,1,9.45,9.83c11.74,13.94,19.82,30.58,25.49,47.78s9,35.17,11.13,53.16h-.1c-2.28-18-5.8-35.82-11.5-53s-13.85-33.67-25.57-47.47a113.87,113.87,0,0,0-9.42-9.72,98.74,98.74,0,0,0-22.32-15.17,118.89,118.89,0,0,0-12.47-5.24c-17.07-6-35.32-7.91-53.36-7.77s-36.12,2.4-53.94,5.55-35.47,7.34-53,12c-35,9.28-69.59,20.22-104.13,31.18-17.27,5.5-34.53,11-51.82,16.43S339,174,321.62,179.12c-34.77,10.22-69.84,19.53-105.36,26.85q-13.31,2.76-26.71,5.09c-8.93,1.56-17.88,3-26.87,4.2-18,2.44-36,4.26-54.13,5.21a531.66,531.66,0,0,1-54.37.22,443.62,443.62,0,0,1-54-5.95Z" transform="translate(-0.04 -3.42)" fill="#192236"/></svg>