<svg id="Layer_2" data-name="Layer 2" xmlns="http://www.w3.org/2000/svg" viewBox="0 0 751.08 503.56"><title>wave2</title><path d="M720.51,291l11.76,1.58a118.43,118.43,0,0,1,12.17,4.17l1.1.17c-137.22-552.65-380-149.06-654.2-149.06L6,256.74C369.48,328.46,636,78.76,720.51,291Z" transform="translate(0.26 -4.26)" fill="#192236"/><path d="M91.33,147.65c4.52-.21,9-.37,13.56-.63l6.76-.57c2.25-.22,4.51-.32,6.75-.65l6.72-.86c2.24-.28,4.48-.55,6.71-1l6.68-1.11,3.34-.55,3.32-.67a434.61,434.61,0,0,0,52.34-13.84c34.38-11.17,67.44-26,100.3-41.15,16.45-7.56,32.82-15.32,49.22-23q12.31-5.77,24.66-11.44c8.24-3.78,16.49-7.52,24.79-11.16,4.15-1.82,8.29-3.66,12.48-5.39L415.24,33l6.3-2.56c8.38-3.45,16.88-6.62,25.44-9.63a321.1,321.1,0,0,1,52.64-13.9c2.23-.45,4.5-.66,6.76-1s4.51-.64,6.78-.82c4.55-.32,9.09-.81,13.66-.79l3.42-.07c1.14,0,2.28-.07,3.42,0l6.85.29,1.71.08c.57,0,1.14.12,1.71.17l3.41.38,3.41.38,1.71.19,1.69.31,6.76,1.23a32.73,32.73,0,0,1,3.35.76l3.33.86c4.48,1,8.77,2.65,13.13,4.08a138.92,138.92,0,0,1,24.62,12.2,165.32,165.32,0,0,1,22,16.4c1.72,1.51,3.33,3.14,5,4.7s3.35,3.13,4.94,4.77l4.66,5,2.33,2.52,1.17,1.26,1.09,1.32,4.36,5.29,2.18,2.64c.36.44.73.88,1.08,1.33l1,1.38,4,5.52,2,2.76c.68.92,1.36,1.83,2,2.8l7.53,11.42,7,11.75c1.2,1.94,2.21,4,3.3,6l3.22,6,1.61,3c.55,1,1.07,2,1.55,3l3,6.14c4.11,8.12,7.65,16.5,11.32,24.81l5.09,12.64,2.53,6.32,2.35,6.39,4.69,12.78,4.35,12.9a1041.88,1041.88,0,0,1,28.43,105l-.39.09c-9-35.08-19-69.92-31-104.05l-4.5-12.79-4.84-12.66L706,175.37l-2.6-6.25-5.23-12.5a523.35,523.35,0,0,0-24.15-48.39,293.12,293.12,0,0,0-30.65-44.31l-1.06-1.3-1.13-1.24-2.27-2.48-4.54-5c-1.55-1.62-3.2-3.13-4.8-4.7s-3.19-3.15-4.86-4.64a161.47,161.47,0,0,0-21.39-16.16,139,139,0,0,0-23.88-12.1c-4.23-1.45-8.39-3.12-12.75-4.14l-3.24-.88a31.38,31.38,0,0,0-3.26-.78l-6.59-1.28a155.27,155.27,0,0,0-26.79-2.14c-4.5-.11-9,.28-13.48.51-2.25.12-4.48.46-6.72.67s-4.49.43-6.71.83l-6.68,1.06-1.67.27-1.66.34-3.32.67c-2.21.47-4.43.86-6.62,1.39l-6.58,1.6c-1.1.27-2.2.52-3.29.82l-3.26.92L460.34,18c-2.16.66-4.31,1.37-6.46,2.05s-4.32,1.34-6.44,2.11C430.31,28,413.53,34.85,397,42.25c-8.26,3.7-16.45,7.56-24.62,11.46s-16.28,7.94-24.39,12c-16.23,8-32.43,16.16-48.77,24-32.68,15.69-66.13,30.06-100.78,41.06a405.55,405.55,0,0,1-52.91,13l-3.35.6-3.37.49-6.75.93c-2.24.34-4.51.55-6.77.76l-6.78.65c-2.25.26-4.53.29-6.79.44l-6.8.36c-4.54.12-9.07.06-13.6.09Z" transform="translate(0.26 -4.26)" fill="#4b5c8d"/><path d="M83,158.34C370.26,165.48,624.84-243,749,329" transform="translate(0.26 -4.26)" fill="none" stroke="#465785" stroke-miterlimit="10" stroke-width="3.73"/><path d="M74.68,168.84C378.87,183.12,637.25-223.47,749,346.92" transform="translate(0.26 -4.26)" fill="none" stroke="#42517d" stroke-miterlimit="10" stroke-width="3.45"/><path d="M66.35,179.33C387.47,200.76,649.67-203.89,749,364.79" transform="translate(0.26 -4.26)" fill="none" stroke="#3d4c75" stroke-miterlimit="10" stroke-width="3.18"/><path d="M58,189.83c338,28.57,604.06-374.15,691,192.85" transform="translate(0.26 -4.26)" fill="none" stroke="#39476d" stroke-miterlimit="10" stroke-width="2.91"/><path d="M49.7,200.32C404.67,236,674.5-164.75,749,400.55" transform="translate(0.26 -4.26)" fill="none" stroke="#344265" stroke-miterlimit="10" stroke-width="2.64"/><path d="M41.38,210.82c371.9,42.85,645.54-356,707.62,207.62" transform="translate(0.26 -4.26)" fill="none" stroke="#303c5e" stroke-miterlimit="10" stroke-width="2.36"/><path d="M33.05,221.31c388.83,50,666.28-346.91,715.95,215" transform="translate(0.26 -4.26)" fill="none" stroke="#2b3756" stroke-miterlimit="10" stroke-width="2.09"/><path d="M24.72,231.8C430.48,288.94,711.75-106,749,454.19" transform="translate(0.26 -4.26)" fill="none" stroke="#27324e" stroke-miterlimit="10" stroke-width="1.82"/><path d="M16.4,242.3C439.08,306.58,724.17-86.46,749,472.07" transform="translate(0.26 -4.26)" fill="none" stroke="#222d46" stroke-miterlimit="10" stroke-width="1.55"/><path d="M8.07,252.79C447.68,324.22,736.58-66.89,749,489.95" transform="translate(0.26 -4.26)" fill="none" stroke="#1e273e" stroke-miterlimit="10" stroke-width="1.27"/><path d="M-.24,263.24a781.92,781.92,0,0,0,122.8,10.62q15.42.1,30.84-.34T184.2,272q30.77-2,61.4-5.87c40.81-5.15,81.28-12.73,121.48-21.44s80.1-18.81,120.32-27.53c20.11-4.33,40.31-8.33,60.72-11.09,10.2-1.39,20.45-2.45,30.74-3,5.14-.27,10.29-.42,15.45-.37s10.31.23,15.44.65,10.26,1,15.35,1.91a132.16,132.16,0,0,1,15.08,3.45A122.4,122.4,0,0,1,654.74,214a113.14,113.14,0,0,1,13.71,7.19A101.88,101.88,0,0,1,681,230.29a108.2,108.2,0,0,1,11.12,10.76,124.06,124.06,0,0,1,9.64,12.11l1.12,1.58,1.06,1.62c.7,1.08,1.43,2.15,2.11,3.24,1.33,2.21,2.71,4.39,3.93,6.66,2.57,4.48,4.81,9.12,7,13.79s4.1,9.46,5.87,14.3A285.44,285.44,0,0,1,732,323.85a487.38,487.38,0,0,1,11,60.75c4.89,40.89,6.2,82.1,6.11,123.23h-.1q-.12-30.86-1.57-61.68c-.52-10.27-1.18-20.53-2-30.78s-1.89-20.48-3.14-30.68a486.55,486.55,0,0,0-11.16-60.6,301.79,301.79,0,0,0-9.15-29.4c-1.76-4.82-3.76-9.55-5.84-14.24s-4.4-9.27-7-13.72c-1.21-2.26-2.59-4.42-3.91-6.62-.68-1.09-1.4-2.15-2.1-3.22l-1.06-1.61L701,253.71a123.1,123.1,0,0,0-9.56-12,107.24,107.24,0,0,0-11-10.68A100.93,100.93,0,0,0,668,222a112.2,112.2,0,0,0-13.59-7.14,121.47,121.47,0,0,0-14.45-5.19,131.25,131.25,0,0,0-15-3.43q-7.58-1.32-15.26-1.91t-15.38-.65c-5.13-.05-10.27.09-15.4.34-10.26.5-20.49,1.52-30.68,2.87-20.38,2.68-40.59,6.61-60.71,10.86s-40.15,9-60.18,13.63-40.08,9.28-60.17,13.73C327,254,286.52,261.66,245.7,266.93q-15.3,2-30.67,3.49c-10.24,1-20.5,1.88-30.77,2.49s-20.55,1.1-30.84,1.38-20.58.34-30.87.25q-30.87-.34-61.64-3.07c-20.5-1.83-40.9-4.61-61.17-8.14Z" transform="translate(0.26 -4.26)" fill="#192236"/></svg>