<svg id="Layer_3" data-name="Layer 3" xmlns="http://www.w3.org/2000/svg" viewBox="0 0 748.08 437.02"><title>wave3</title><path d="M747.25,389.52C500.1,477.62,123.76,430.12,53.82,242.91.33,99.73,164.15,8,240.6,103l-7.69,17.16c-30.85-20-101.35,23.56-49.37,92.93,67.57,90.17,308.48,136.3,455,84.08Z" transform="translate(0.81 -0.2)" fill="#192236"/><path d="M638.6,297.34c-6.18,2.33-12.42,4.55-18.76,6.44-3.15,1-6.35,1.85-9.52,2.79s-6.39,1.75-9.61,2.47q-19.32,4.6-39,7.35a501.89,501.89,0,0,1-79.27,4.34c-13.24-.3-26.46-1.16-39.63-2.46s-26.3-3-39.35-5.13A688,688,0,0,1,326,296.06c-25.39-7.33-50.44-16.19-74.2-28-3-1.45-5.89-3-8.83-4.59s-5.82-3.2-8.66-4.91c-5.73-3.36-11.35-6.92-16.77-10.79a170.67,170.67,0,0,1-29.95-26.47,126.49,126.49,0,0,1-12-16.12,91.63,91.63,0,0,1-8.77-18.23,64.25,64.25,0,0,1-3.58-20.06,51.9,51.9,0,0,1,3.72-20.08,53.08,53.08,0,0,1,11.15-17,54.08,54.08,0,0,1,16.57-11.57,50.71,50.71,0,0,1,9.57-3.25,41.38,41.38,0,0,1,10-1.13,34.3,34.3,0,0,1,9.95,1.51A26.23,26.23,0,0,1,233,120l-.24.32a29.68,29.68,0,0,0-18.5-4.91,46.34,46.34,0,0,0-18.57,5,54.45,54.45,0,0,0-15.33,11.53,49.66,49.66,0,0,0-10,16.16,50.43,50.43,0,0,0-3.06,18.69,61.22,61.22,0,0,0,3.55,18.74,87.8,87.8,0,0,0,8.34,17.4,116.54,116.54,0,0,0,11.46,15.71,166.88,166.88,0,0,0,29,26.13c2.64,1.94,5.37,3.75,8.07,5.61s5.49,3.59,8.31,5.26,5.65,3.34,8.49,5,5.74,3.19,8.67,4.68a413.86,413.86,0,0,0,73.21,29.39c6.33,1.84,12.67,3.64,19.07,5.26s12.81,3.16,19.25,4.55l9.69,2c3.24.6,6.48,1.24,9.73,1.78q9.74,1.73,19.54,3a670.85,670.85,0,0,0,78.78,5.89,572.55,572.55,0,0,0,78.82-3.69q19.62-2.25,39-6.37A363.44,363.44,0,0,0,638.47,297Z" transform="translate(0.81 -0.2)" fill="#4b5c8d"/><path d="M652.12,308.7C493,365.4,233.45,318.89,167.61,217.58,112.27,132.43,206,87.16,235.66,116.48" transform="translate(0.81 -0.2)" fill="none" stroke="#606d96" stroke-miterlimit="10" stroke-width="3.63"/><path d="M665.71,320.24c-171.67,61.19-449.44,13.86-514-98.16C93.29,120.86,208.05,76.15,238.41,112.82" transform="translate(0.81 -0.2)" fill="none" stroke="#747d9f" stroke-miterlimit="10" stroke-width="3.25"/><path d="M679.3,331.79c-184.25,65.67-479.85,17.29-543.57-105.21C74.6,109.09,210.13,65.13,241.16,109.15" transform="translate(0.81 -0.2)" fill="none" stroke="#898ea9" stroke-miterlimit="10" stroke-width="2.88"/><path d="M692.89,343.34c-196.83,70.16-510,20.58-573.1-112.25-63.62-133.9,92.41-177,124.11-125.6" transform="translate(0.81 -0.2)" fill="none" stroke="#9d9eb2" stroke-miterlimit="10" stroke-width="2.5"/><path d="M706.48,354.88C497.07,429.53,166.55,378.7,103.86,235.6,38,85.2,214.28,43.1,246.66,101.83" transform="translate(0.81 -0.2)" fill="none" stroke="#b2afbb" stroke-miterlimit="10" stroke-width="2.13"/><path d="M720.07,366.43c-222,79.13-569.73,27-632.15-126.33C20,73.16,216.35,32.08,249.41,98.17" transform="translate(0.81 -0.2)" fill="none" stroke="#c6c0c4" stroke-miterlimit="10" stroke-width="1.75"/><path d="M733.66,378C499.09,461.59,134.25,408.16,72,244.61,2.11,61.09,218.43,21.06,252.16,94.51" transform="translate(0.81 -0.2)" fill="none" stroke="#dbd0ce" stroke-miterlimit="10" stroke-width="1.38"/><path d="M747.27,389.57C703,405.51,656.86,416,610.3,422.74a871.71,871.71,0,0,1-140.78,8.48,857,857,0,0,1-140.31-14.09c-46.2-8.71-91.88-21.29-135-40.36a372.47,372.47,0,0,1-61.67-34.2c-19.31-13.44-37.16-29.24-51.66-47.87a170.53,170.53,0,0,1-18.77-29.91,155,155,0,0,1-6.83-16.31q-3-8.32-5.37-16.83A213,213,0,0,1,43.1,197a157.88,157.88,0,0,1,0-35.32A124.93,124.93,0,0,1,52,127.52a113.76,113.76,0,0,1,18.56-30A123.78,123.78,0,0,1,97.15,74.33,141,141,0,0,1,128.94,59a151.39,151.39,0,0,1,34.52-7.29A135.74,135.74,0,0,1,198.69,53c11.59,2,23,5.75,33.07,11.92a63.22,63.22,0,0,1,13.65,11.14A51.83,51.83,0,0,1,255,90.83l-.09,0a51.68,51.68,0,0,0-9.61-14.66,63,63,0,0,0-13.66-11c-10.06-6.08-21.44-9.71-33-11.7a135.2,135.2,0,0,0-35.09-1.15,150.73,150.73,0,0,0-34.34,7.37A140.24,140.24,0,0,0,97.6,75,122.89,122.89,0,0,0,71.26,98.11,115,115,0,0,0,52.89,127.9a124,124,0,0,0-8.82,33.89,156.92,156.92,0,0,0,0,35.1,212.07,212.07,0,0,0,6.81,34.49q2.38,8.48,5.34,16.78A154.07,154.07,0,0,0,63,264.38a169.61,169.61,0,0,0,18.65,29.76,210.55,210.55,0,0,0,23.91,25.79,264.25,264.25,0,0,0,27.48,22,371.81,371.81,0,0,0,61.45,34.33,534.39,534.39,0,0,0,66.2,24.19,666.31,666.31,0,0,0,68.6,16.31,858.45,858.45,0,0,0,140.25,13.7q35.26.61,70.5-1.5t70.17-6.91c23.28-3.29,46.43-7.53,69.32-12.93a656.64,656.64,0,0,0,67.72-19.66Z" transform="translate(0.81 -0.2)" fill="#efe1d7"/><path d="M738.52,386.59C539.89,450.43,267,426.73,135.95,333,45.71,268.48,30.27,156,82.81,101.63,116,67.31,184.69,55,210.25,91.76c21.34,30.72,7.37,71.06-24.6,80.82-2.18,10.85,6.94,17.24,16.58,17.73,7.28.37,13.72-3.27,16.63-8.76,5.21,7.59,14.39,12.86,25.09,13.41,17.16.87,31.71-10.76,32.5-26a24.63,24.63,0,0,0-.58-6.58,42,42,0,0,0,6.95.94c20.53,1,37.95-12.88,38.89-31.09.49-9.46-3.56-18.21-10.44-24.59,9-6.92,14.94-17,15.53-28.44,1.16-22.32-18.31-41.46-43.47-42.73l-.81,0a24.66,24.66,0,0,0,1.06-5.94c.79-15.22-12.48-28.26-29.64-29.13a33.57,33.57,0,0,0-19.16,4.74,16.81,16.81,0,0,0-24-1.6l-1.12-.17a13.63,13.63,0,0,0-7.2-2.46,13.84,13.84,0,0,0-6.09,1.05C95.71-3.37-47.7,84.48,14.16,248.17,85.75,437.6,495.69,484.58,747.25,389.52Z" transform="translate(0.81 -0.2)" fill="#efe1d7"/></svg>